<svg width="418" height="318" viewBox="0 0 418 318" fill="none" xmlns="http://www.w3.org/2000/svg">
<g clip-path="url(#clip0_103_778)" filter="url(#filter0_d_103_778)">
<path d="M418.164 160.843C379.383 167.355 344.131 192.376 325.187 226.838C290.957 225.888 256.131 246.139 240.481 276.598C228.385 264.682 209.303 260.767 192.69 264.275C176.076 267.782 161.57 280.029 155.323 295.819C144.439 293.36 132.628 295.014 122.419 299.518C112.21 304.023 103.512 311.876 97.9917 321.573C96.2428 315.666 90.7884 310.435 84.8933 308.645C78.9974 306.855 72.2422 308.22 67.5042 312.159C62.7661 316.097 60.1896 322.489 60.8706 328.612C60.8706 328.612 418.472 335.679 418.164 333.737C417.856 331.794 418.164 160.843 418.164 160.843Z" fill="#A08CFF"/>
<path d="M388.143 282.065C385.405 263.715 375.166 246.751 359.664 236.559C328.54 250.13 298.846 267.482 272.539 288.949C274.919 304.011 279.549 318.715 286.227 332.425L377.751 335.763C386.609 319.462 390.882 300.414 388.143 282.065Z" fill="#FF9A7D"/>
<path d="M314.473 290.922C310.582 303.976 306.69 317.03 302.799 330.084" stroke="#2B2C34" stroke-width="1.33333" stroke-miterlimit="10" stroke-linecap="round" stroke-linejoin="round"/>
<path d="M268.986 244.139C259.837 246.846 251.008 250.555 242.638 255.111C244.226 256.319 245.875 257.557 247.339 258.701C244.516 258.212 241.694 257.724 238.872 257.236C226.896 264.242 215.953 273.022 206.491 283.178C207.953 285.223 209.416 287.268 210.878 289.313C208.435 288.352 205.992 287.392 203.549 286.431C201.386 288.9 199.31 291.443 197.325 294.056C199.353 295.576 201.382 297.096 203.411 298.616C200.731 297.973 198.05 297.329 195.37 296.685C189.537 304.746 184.56 313.421 180.62 322.57C187.366 320.423 193.968 317.871 200.396 314.95C200.827 312.509 201.259 310.067 201.691 307.625C202.173 309.642 202.655 311.658 203.138 313.673C230.863 300.515 255.174 280.387 273.289 255.498L268.986 244.139Z" fill="#FF7AD7"/>
<path d="M202.294 303.202C222.048 287.555 241.802 271.908 261.556 256.262" stroke="#2B2C34" stroke-width="1.33333" stroke-miterlimit="10" stroke-linecap="round" stroke-linejoin="round"/>
<path d="M269.062 308.544C269.971 310.024 270.881 311.503 271.79 312.982C282.541 301.464 291.227 288.029 297.111 273.389L277.586 268.897C256.986 287.43 242.456 312.605 236.713 339.714C246.219 334.766 255.079 328.617 263.073 321.5C263.068 317.931 263.062 314.362 263.057 310.793C264.189 313.324 265.32 315.855 266.452 318.386C267.521 317.366 268.57 316.326 269.604 315.27C269.423 313.028 269.242 310.786 269.062 308.544Z" fill="#496AFE"/>
<path d="M270.827 290.939C264.729 301.958 257.17 312.168 248.411 321.216" stroke="#2B2C34" stroke-width="1.33333" stroke-miterlimit="10" stroke-linecap="round" stroke-linejoin="round"/>
<path d="M272.311 254.045C247.955 270.339 227.095 291.804 211.382 316.536C213.915 317.45 216.447 318.364 218.979 319.278C215.711 319.549 212.443 319.82 209.175 320.091C205.792 325.658 202.661 331.378 199.813 337.238C212.363 334.063 224.346 328.489 235.039 321.089C235.166 318.262 235.292 315.435 235.418 312.607C236.317 314.701 237.214 316.793 238.112 318.886C242.381 315.715 246.428 312.255 250.188 308.524C264.026 294.789 274.095 277.292 279.018 258.426L272.311 254.045Z" fill="#29D3F3"/>
<path d="M267.468 268.771C251.793 285.239 236.118 301.707 220.443 318.175" stroke="#2B2C34" stroke-width="1.33333" stroke-miterlimit="10" stroke-linecap="round" stroke-linejoin="round"/>
<path d="M313.761 288.98C314.126 291.068 313.329 293.321 311.732 294.715C310.135 296.109 308 296.956 305.982 296.312C304.817 299.058 302.197 301.137 299.257 301.646C296.317 302.155 293.051 301.235 291.029 299.041C290.179 302.025 287.609 304.454 284.581 305.134C281.553 305.815 278.275 304.599 276.229 302.264C274.885 303.799 272.501 304.311 270.645 303.463C268.788 302.617 267.614 300.48 267.892 298.458C281.514 290.516 298.154 286.725 313.761 288.98Z" fill="white"/>
<path d="M332.603 229.343L264.539 254.165C266.357 269.181 268.173 284.196 269.991 299.211C283.78 292.607 299.465 289.904 314.697 291.227C322.355 267.866 339.651 247.848 361.608 236.79C352.962 231.322 342.799 228.497 332.603 229.343Z" fill="#FFD94B"/>
<path d="M265.306 263.192C273.828 266.265 283.042 267.4 292.055 266.487C302.938 265.384 313.788 261.076 321.193 253.024" stroke="#2B2C34" stroke-width="1.33333" stroke-miterlimit="10" stroke-linecap="round" stroke-linejoin="round"/>
<path d="M270.14 295.283C284.033 289.138 299.64 286.93 314.691 288.976" stroke="#2B2C34" stroke-width="1.33333" stroke-miterlimit="10" stroke-linecap="round" stroke-linejoin="round"/>
<path d="M330.779 220.697L263.204 241.714C263.752 244.709 265.11 252.827 265.658 255.822C278.453 259.726 292.414 259.69 305.03 255.242C317.645 250.795 328.77 242.225 336.289 231.162L330.779 220.697Z" fill="#FF9A7D"/>
<path d="M288.363 250.116C289.382 249.898 290.399 249.679 291.418 249.461" stroke="#2B2C34" stroke-width="1.33333" stroke-miterlimit="10" stroke-linecap="round" stroke-linejoin="round"/>
<path d="M334.154 90.4848C335.307 89.8635 336.204 89.2371 337.357 88.6158C336.931 87.4726 335.227 86.7828 334.055 87.1204C332.425 87.5891 330.597 87.6451 328.929 87.9451C329.61 86.9243 330.067 85.95 330.748 84.9285C330.237 84.5813 329.355 84.4126 328.762 84.5843C328.168 84.7567 327.643 85.1039 327.139 85.4613C325.79 86.418 324.52 87.4867 323.347 88.6526C320.422 88.9496 317.363 89.2415 314.438 89.5385C310.239 86.5565 305.761 83.6836 300.744 82.5206C295.727 81.3569 290.099 81.9376 286.009 85.0685C267.003 95.7752 248.706 106.997 230.963 119.101C223.874 123.937 219.17 132.319 218.661 140.884C218.204 148.577 221.864 156.058 227 161.803C232.135 167.548 238.669 171.83 245.121 176.042L260.22 142.92C271.649 129.627 283.079 116.334 294.508 103.04C303.637 101.998 312.55 100.902 321.678 99.8597C321.678 99.8597 331.908 94.6623 337.076 92.0304C336.61 90.9167 335.328 90.2026 334.154 90.4848Z" fill="#FF9A7D"/>
<path d="M254.322 137.012C256.951 138.658 259.58 140.304 262.208 141.949" stroke="#2B2C34" stroke-width="1.33333" stroke-miterlimit="10" stroke-linecap="round" stroke-linejoin="round"/>
<path d="M314.403 89.4492C316.196 90.0469 317.987 90.6446 319.779 91.2431C320.867 91.6057 321.632 92.8063 321.41 93.9317C315.538 93.8706 309.231 93.9664 303.359 93.9052" stroke="#2B2C34" stroke-width="1.33333" stroke-miterlimit="10" stroke-linecap="round" stroke-linejoin="round"/>
<path d="M333.994 90.3893C329.502 90.7659 325.01 91.1425 320.518 91.5191" stroke="#2B2C34" stroke-width="1.33333" stroke-miterlimit="10" stroke-linecap="round" stroke-linejoin="round"/>
<path d="M329.273 87.5726C326.77 88.4902 324.267 89.407 321.765 90.3246" stroke="#2B2C34" stroke-width="1.33333" stroke-miterlimit="10" stroke-linecap="round" stroke-linejoin="round"/>
<path d="M295.076 105.275L277.767 125.224L275.328 128.037C271.422 126.153 268.695 121.734 268.791 117.394C267.359 118.418 265.31 118.488 263.809 117.559C262.315 116.639 261.473 114.555 261.743 112.819C259.104 112.073 256.82 110.163 255.623 107.697C254.416 105.232 254.573 102.098 255.614 99.5635C257.185 98.713 258.756 97.8617 260.337 97.02C267.741 93.0527 275.18 89.1723 282.567 85.1614C286.734 91.8631 290.9 98.5737 295.076 105.275Z" fill="#FF7AD7"/>
<path d="M277.767 125.224L275.328 128.037C271.421 126.153 268.696 121.734 268.791 117.394C267.359 118.419 265.31 118.488 263.809 117.559C262.316 116.639 261.473 114.555 261.742 112.819C259.103 112.073 256.821 110.162 255.623 107.697C254.416 105.232 254.572 102.098 255.614 99.5634C257.185 98.7129 258.756 97.8616 260.336 97.0199C259.486 99.2944 259.495 101.898 260.423 104.147C261.499 106.786 263.8 108.896 266.517 109.737C266.1 110.709 266.3 112.298 267.003 113.088C267.706 113.887 268.887 114.226 269.902 113.93C270.562 118.54 273.678 122.889 277.767 125.224Z" fill="#FFD94B"/>
<path d="M327.806 222.309L329.453 225.379C344.212 215.232 355.606 199.893 361.087 182.842C344.989 190.344 332.484 205.174 327.806 222.309Z" fill="#FF54B7"/>
<path d="M350.547 194.173C342.846 203.482 335.145 212.791 327.443 222.101" stroke="#2B2C34" stroke-width="1.33333" stroke-miterlimit="10" stroke-linecap="round" stroke-linejoin="round"/>
<path d="M328.353 225.368C347.777 217.429 366.245 203.37 377.396 185.594C357.051 192.521 339.331 206.891 328.353 225.368Z" fill="#FF7AD7"/>
<path d="M359.547 198.713C350.147 205.786 340.746 212.861 331.345 219.936" stroke="#2B2C34" stroke-width="1.33333" stroke-miterlimit="10" stroke-linecap="round" stroke-linejoin="round"/>
<path d="M328.541 225.268L332.46 225.295C351.847 221.548 370.737 212.962 386.447 201C365.225 202.661 344.606 211.302 328.541 225.268Z" fill="#FF7AD7"/>
<path d="M367.75 208.677C361.195 211.356 354.641 214.033 348.086 216.712" stroke="#2B2C34" stroke-width="1.33333" stroke-miterlimit="10" stroke-linecap="round" stroke-linejoin="round"/>
<path d="M423.385 251.419C419.921 253.38 416.456 255.341 412.992 257.302C414.768 254.675 416.545 252.048 418.321 249.42C416.361 248.666 414.395 247.929 412.419 247.212C409.145 248.819 405.872 250.427 402.598 252.034C404.27 249.859 405.943 247.684 407.615 245.509C397.273 241.942 386.698 238.896 375.85 236.443C346.962 229.909 316.524 228.201 287.338 233.519L289.085 234.289C301.354 251.883 322.24 263.201 343.938 269.801C380.567 280.943 421.453 280.046 457.451 267.31C446.34 261.443 435.003 256.112 423.385 251.419Z" fill="#FFD94B"/>
<path d="M314.156 240.4C352.397 249.281 390.639 258.164 428.88 267.046" stroke="#2B2C34" stroke-width="1.33333" stroke-miterlimit="10" stroke-linecap="round" stroke-linejoin="round"/>
<path d="M401.808 290.45C399.362 290.946 396.916 291.442 394.469 291.938C396.032 290.55 397.773 289.363 399.631 288.407C398.085 287.014 396.475 285.679 394.787 284.418C364.19 261.566 328.079 246.314 290.41 240.039C307.1 259.13 324.562 277.899 345.507 292.187C346.535 288.936 347.565 285.685 348.595 282.434C348.892 286.562 349.19 290.69 349.488 294.819C352.562 296.783 355.715 298.64 358.935 300.378C359.465 297.315 359.995 294.252 360.526 291.19C361.174 294.869 361.823 298.548 362.471 302.228C373.998 308.035 386.311 312.243 398.936 314.066C399.421 311.35 399.906 308.635 400.39 305.919C401.063 308.78 401.734 311.64 402.406 314.5C407.48 315.053 412.597 315.219 417.727 314.933C414.18 305.611 408.804 297.331 401.808 290.45Z" fill="#FF7AD7"/>
<path d="M324.618 257.685C347.341 270.545 370.064 283.405 392.789 296.265" stroke="#2B2C34" stroke-width="1.33333" stroke-miterlimit="10" stroke-linecap="round" stroke-linejoin="round"/>
<path d="M418.429 222.467C415.052 224.078 411.675 225.689 408.298 227.3C410.072 225.319 411.847 223.34 413.622 221.36C409.959 220.557 406.276 219.844 402.576 219.23C399.643 220.614 396.712 221.999 393.779 223.383C395.23 221.771 396.68 220.157 398.13 218.544C390.637 217.456 383.089 216.74 375.525 216.426C373.828 218.268 372.13 220.11 370.433 221.952C371.069 220.078 371.704 218.205 372.34 216.331C345.063 215.591 317.675 219.891 292.17 229.443L298.62 232.263C350.997 241.552 404.787 242.835 457.547 236.051C445.002 230.262 431.875 225.731 418.429 222.467Z" fill="#496AFE"/>
<path d="M336.99 225.349C361.643 227.864 386.297 230.38 410.95 232.896" stroke="#2B2C34" stroke-width="1.33333" stroke-miterlimit="10" stroke-linecap="round" stroke-linejoin="round"/>
<path d="M332.15 222.103L263.488 243.441C258.461 232.902 254.269 221.643 251.638 210.271C249.269 208.049 247.645 205.063 247.064 201.868C246.482 198.682 246.933 195.236 248.366 192.336C245.502 192.58 242.481 192.831 239.494 193.065C237.732 193.222 235.979 193.361 234.277 193.508C233.149 191.902 232.724 189.81 233.132 187.883C233.54 185.964 234.607 183.925 236.3 182.917C233.687 181.407 232.212 178.161 232.793 175.2C233.383 172.249 236.543 169.835 239.529 169.436C239.138 168.464 239.287 167.292 239.912 166.458C240.536 165.617 241.873 164.957 242.915 165.052C241.734 162.118 242.541 158.49 244.868 156.337C247.186 154.184 250.839 153.203 253.687 154.609C252.09 151.727 252.307 147.942 254.208 145.251C256.118 142.569 260.137 140.138 263.088 141.596C264.39 142.247 265.701 142.89 267.003 143.541C277.888 148.949 288.773 154.357 299.659 159.757C300.397 161.84 302.576 163.551 304.754 163.915C306.933 164.271 309.277 163.368 310.657 161.64C314.042 164.523 317.41 166.823 320.805 169.697C328.495 176.233 329.841 188.516 327.011 198.213C327.011 198.213 330.483 214.177 332.15 222.103Z" fill="#29D3F3"/>
<path d="M267.003 143.541C264.407 144.391 262.047 145.972 260.302 148.081C257.637 151.293 256.378 155.434 257.064 159.557C254.399 158.116 250.909 158.368 248.488 160.182C246.057 161.997 244.868 165.139 245.501 168.099C244.381 168.195 243.34 168.889 242.81 169.879C242.29 170.86 242.194 172.049 242.733 173.03C240.771 173.916 239.338 175.86 239.069 177.996C238.791 180.131 239.651 183.065 241.326 184.411C239.833 185.704 238.904 187.614 238.8 189.576C238.739 190.774 238.982 191.981 239.494 193.066C237.732 193.222 235.979 193.36 234.277 193.509C233.149 191.903 232.724 189.81 233.132 187.883C233.539 185.964 234.607 183.924 236.3 182.918C233.688 181.407 232.211 178.16 232.793 175.2C233.383 172.248 236.543 169.835 239.529 169.436C239.138 168.464 239.286 167.292 239.911 166.458C240.536 165.616 241.873 164.956 242.915 165.052C241.734 162.118 242.542 158.49 244.868 156.336C247.185 154.183 250.839 153.202 253.687 154.609C252.09 151.727 252.307 147.942 254.208 145.251C256.118 142.569 260.136 140.138 263.088 141.597C264.39 142.247 265.701 142.89 267.003 143.541Z" fill="white"/>
<path d="M252.955 178.497C252.304 180.747 252.231 183.044 252.581 185.359C251.061 187.784 249.542 190.209 248.023 192.634" stroke="#2B2C34" stroke-width="1.33333" stroke-miterlimit="10" stroke-linecap="round" stroke-linejoin="round"/>
<path d="M284.799 154.519C289.587 156.534 294.376 158.548 299.164 160.562C301.72 164.126 306.912 165.387 310.862 163.479C312.913 165.444 314.973 166.595 317.024 168.56C309.89 173.551 302.051 178.437 295.783 184.481C292.53 187.618 289.312 190.955 285.217 192.867C281.122 194.779 275.843 194.943 272.436 191.974C270.239 190.059 269.135 187.11 268.969 184.201C268.804 181.292 269.492 178.399 270.398 175.629C273.019 167.62 278.864 160.502 284.799 154.519Z" fill="#FF9A7D"/>
<path d="M277.896 189.436C276.711 191.779 277.257 190.699 276.072 193.042" stroke="#2B2C34" stroke-width="1.33333" stroke-miterlimit="10" stroke-linecap="round" stroke-linejoin="round"/>
<path d="M310.248 162.163L297.895 158.582C297.045 158.616 296.193 158.65 295.342 158.685C294.543 161.414 295.811 164.715 297.994 166.54C300.176 168.365 303.194 169.006 306.017 168.652C308.84 168.297 311.484 167.027 313.819 165.402C312.643 164.33 311.425 163.234 310.248 162.163Z" fill="#FFD94B"/>
<path d="M316.452 150.931C319.902 153.863 323.353 156.795 326.804 159.727C330.28 162.681 333.806 165.668 337.91 167.659C343.772 170.503 350.677 171.133 356.957 169.398" stroke="#2B2C34" stroke-width="1.33333" stroke-miterlimit="10" stroke-linecap="round" stroke-linejoin="round"/>
<path d="M364.618 130.183C360.645 131.298 356.344 130.495 352.542 128.891C348.74 127.287 345.317 124.924 341.799 122.768C338.28 120.612 334.561 118.622 330.499 117.894C326.438 117.165 321.944 117.86 318.834 120.572" stroke="#2B2C34" stroke-width="1.33333" stroke-miterlimit="10" stroke-linecap="round" stroke-linejoin="round"/>
<path d="M380.974 146.085C379.739 144.989 377.7 144.314 376.114 144.774C379.797 143.843 382.5 139.996 382.13 136.215C381.758 132.434 378.358 129.186 374.565 128.987C371.442 128.825 368.549 130.463 365.551 131.352C358.299 133.505 350.278 130.374 344.598 125.377C340.699 121.947 335.997 119.342 330.903 118.344C325.807 117.346 320.314 118.037 315.852 120.693C311.39 123.349 308.089 128.051 307.564 133.217L313.842 148.852C319.142 153.165 324.408 157.576 329.844 161.716C335.972 166.383 343.892 168.631 351.557 167.878C359.223 167.125 366.116 162.917 371.219 157.147C374.232 157.497 377.37 156.619 379.764 154.756C381.123 153.699 382.281 152.257 382.561 150.557C382.83 148.928 382.209 147.181 380.974 146.085Z" fill="#2B2C34"/>
<path d="M308.814 135.086L311.789 138.544C319.228 137.218 326.184 132.703 330.47 126.481C322.482 126.197 314.429 129.396 308.814 135.086Z" fill="#FF7AD7"/>
<path d="M313.468 135.211C316.595 133.332 319.722 131.452 322.85 129.573" stroke="#2B2C34" stroke-width="1.33333" stroke-miterlimit="10" stroke-linecap="round" stroke-linejoin="round"/>
<path d="M306.819 134.099L310.011 135.021C318.587 128.945 324.263 119.287 325.674 108.871C316.614 114.624 309.77 123.78 306.819 134.099Z" fill="#FFD94B"/>
<path d="M317.5 119.978C314.959 124.614 312.42 129.251 309.879 133.888" stroke="#2B2C34" stroke-width="1.33333" stroke-miterlimit="10" stroke-linecap="round" stroke-linejoin="round"/>
<path d="M307.053 135.141C304.391 129.993 303.472 123.962 304.48 118.253C305.486 112.545 308.414 107.193 312.677 103.266C314.71 114.441 312.578 125.217 307.053 135.141Z" fill="#29D3F3"/>
<path d="M309.263 114.162C308.549 119.945 307.835 125.728 307.122 131.511" stroke="#2B2C34" stroke-width="1.33333" stroke-miterlimit="10" stroke-linecap="round" stroke-linejoin="round"/>
<path d="M291.57 136.356C292.657 136.175 293.744 135.994 294.832 135.812" stroke="#2B2C34" stroke-width="1.33333" stroke-miterlimit="10" stroke-linecap="round" stroke-linejoin="round"/>
<path d="M315.626 137.928C313.685 134.297 309.869 131.737 305.774 131.317C301.695 130.897 297.457 132.615 294.816 135.751C293.823 136.322 292.892 137.014 292.062 137.841C293.309 139.406 294.558 140.971 295.806 142.536L311.22 146.816L315.655 149.792C317.578 146.153 317.567 141.558 315.626 137.928Z" fill="#2B2C34"/>
<path d="M311.025 163.947C311.691 160.669 312.56 157.625 313.226 154.347C315.131 154.821 317.287 154.039 318.443 152.454C319.6 150.868 319.687 148.576 318.653 146.907C317.619 145.239 315.528 144.296 313.594 144.626C313.044 143.192 312.082 141.979 311.533 140.545C310.783 141.114 309.471 141.144 308.617 140.748C307.764 140.351 307.163 139.46 307.114 138.519C306.336 139.417 304.531 139.485 303.624 138.718C302.657 139.791 300.952 140.369 299.509 140.332C298.066 140.296 296.653 139.601 295.742 138.481C294.443 141.422 293.059 144.494 292.928 147.707C292.85 149.594 292.66 151.519 293.544 153.188C294.428 154.857 295.943 156.182 297.714 156.836C297.459 158.011 297.019 159.246 296.764 160.42C298.127 162.679 300.568 164.459 303.114 165.15C305.658 165.84 308.709 165.207 311.025 163.947Z" fill="#FF9A7D"/>
<path d="M305.08 148.184L300.571 148.317C300.456 149.591 301.621 150.829 302.9 150.79C304.18 150.753 305.27 149.45 305.08 148.184Z" fill="white"/>
<path d="M300.607 143.898C300.184 145.056 299.76 146.213 299.337 147.371C299.878 147.295 300.419 147.22 300.959 147.144" stroke="#2B2C34" stroke-width="1.33333" stroke-miterlimit="10" stroke-linecap="round" stroke-linejoin="round"/>
<path d="M304.433 144.9C304.83 144.404 305.495 144.136 306.125 144.219C306.755 144.301 307.329 144.731 307.585 145.312" stroke="#2B2C34" stroke-width="1.33333" stroke-miterlimit="10" stroke-linecap="round" stroke-linejoin="round"/>
<path d="M295.146 143.072C295.653 142.697 296.376 142.643 296.934 142.937C297.491 143.231 297.855 143.858 297.833 144.488" stroke="#2B2C34" stroke-width="1.33333" stroke-miterlimit="10" stroke-linecap="round" stroke-linejoin="round"/>
<path d="M304.84 140.301C305.658 140.393 306.476 140.484 307.295 140.576" stroke="#2B2C34" stroke-width="1.33333" stroke-miterlimit="10" stroke-linecap="round" stroke-linejoin="round"/>
<path d="M303.319 138.674C302.41 140.583 300.316 141.863 298.203 141.802" stroke="#2B2C34" stroke-width="1.33333" stroke-miterlimit="10" stroke-linecap="round" stroke-linejoin="round"/>
<path d="M314.548 148.564C315.618 148.492 316.689 148.419 317.76 148.347" stroke="#2B2C34" stroke-width="1.33333" stroke-miterlimit="10" stroke-linecap="round" stroke-linejoin="round"/>
<path d="M297.379 157.064C300.667 158.724 304.734 158.747 308.041 157.124" stroke="#2B2C34" stroke-width="1.33333" stroke-miterlimit="10" stroke-linecap="round" stroke-linejoin="round"/>
<path d="M302.157 165.254C302.157 163.608 300.823 162.275 299.178 162.275C297.533 162.275 296.199 163.608 296.199 165.254C296.199 166.899 297.533 168.233 299.178 168.233C300.823 168.233 302.157 166.899 302.157 165.254Z" fill="#FF54B7"/>
<path d="M317.384 211.297C309.309 203.405 299.325 197.304 288.562 193.89C284.316 199.412 280.07 204.933 275.824 210.456C261.313 207.898 246.461 205.721 231.95 203.164C223.655 203.393 215.144 204.249 207.023 205.954C199.503 205.204 191.939 204.639 184.419 203.889C184.015 204.475 184.245 205.639 184.73 206.16C185.215 206.681 185.904 206.955 186.568 207.212C187.938 207.743 189.308 208.273 190.678 208.804C186.635 209.529 182.474 210.262 178.431 210.988C178.164 211.782 178.704 212.791 179.443 213.188C180.18 213.585 181.054 213.616 181.892 213.638C184.714 213.713 187.537 213.787 190.359 213.862C187.481 214.632 184.68 215.288 181.802 216.059C181.46 216.929 181.99 218.22 182.825 218.639C183.66 219.057 184.638 219.039 185.572 219.012C188.724 218.92 191.876 218.828 195.028 218.735C193.85 219.123 192.672 219.51 191.494 219.898C191.364 220.426 191.603 221.041 192.08 221.304C192.556 221.566 193.119 221.609 193.662 221.646C195.874 221.796 198.086 221.946 200.298 222.096C206.316 222.504 212.333 222.912 218.352 223.32C218.352 223.32 240.358 232.364 251.388 236.726C262.2 241.002 273.91 245.349 285.178 242.483C292.494 240.621 298.795 235.831 303.729 230.119C308.662 224.405 313.704 217.889 317.384 211.297Z" fill="#FF9A7D"/>
<path d="M266.828 242.138C274.162 244.583 282.391 244.227 289.487 241.159" stroke="#2B2C34" stroke-width="1.33333" stroke-miterlimit="10" stroke-linecap="round" stroke-linejoin="round"/>
<path d="M275.479 210.669C276.194 211.333 276.909 211.997 277.624 212.661" stroke="#2B2C34" stroke-width="1.33333" stroke-miterlimit="10" stroke-linecap="round" stroke-linejoin="round"/>
<path d="M190.619 208.711C194.653 208.151 198.688 207.592 202.722 207.033" stroke="#2B2C34" stroke-width="1.33333" stroke-miterlimit="10" stroke-linecap="round" stroke-linejoin="round"/>
<path d="M190.286 213.574C195.043 212.914 199.798 212.253 204.555 211.592" stroke="#2B2C34" stroke-width="1.33333" stroke-miterlimit="10" stroke-linecap="round" stroke-linejoin="round"/>
<path d="M193.696 218.594C197.884 217.937 202.072 217.28 206.26 216.623" stroke="#2B2C34" stroke-width="1.33333" stroke-miterlimit="10" stroke-linecap="round" stroke-linejoin="round"/>
<path d="M255.935 210.497C255.371 212.641 253.991 214.568 252.133 215.783C253.114 216.704 253.383 218.023 253.158 219.351C252.94 220.671 252.02 221.86 250.788 222.407C251.795 223.953 252.142 226.383 251.612 228.145C251.091 229.916 249.764 231.427 248.088 232.173C248.921 233.857 248.878 236.027 247.888 237.625L243.696 235.897L219.685 226.027C222.012 218.014 224.347 210.01 226.673 201.998C235.041 202.719 243.375 203.127 251.734 203.769C252.862 203.856 253.982 203.942 255.111 204.038C256.126 206.017 256.5 208.344 255.935 210.497Z" fill="#FF7AD7"/>
<path d="M255.935 210.497C255.371 212.641 253.991 214.568 252.133 215.783C253.114 216.704 253.383 218.023 253.158 219.351C252.94 220.671 252.02 221.86 250.788 222.407C251.795 223.953 252.142 226.383 251.612 228.145C251.091 229.916 249.764 231.427 248.088 232.173C248.921 233.857 248.878 236.027 247.888 237.625L243.696 235.897C244.078 233.709 243.539 231.34 242.125 229.595C243.965 228.709 245.458 227.138 246.24 225.254C247.029 223.37 247.212 221.374 246.56 219.447C248.366 218.205 249.182 215.653 248.071 213.761C249.842 212.675 251.196 210.931 251.803 208.951C252.307 207.267 252.281 205.436 251.734 203.769C252.862 203.856 253.982 203.942 255.111 204.038C256.126 206.017 256.5 208.344 255.935 210.497Z" fill="#FFD94B"/>
<path d="M327.671 197.51C326.664 203.448 325.128 209.36 324.937 215.358C324.919 215.94 324.91 216.521 324.919 217.103C322.966 218.544 321.239 219.438 318.973 218.562C316.716 217.676 314.416 215.523 313.947 213.144C312.784 213.873 311.187 213.848 310.05 213.075C308.913 212.302 308.27 211.286 308.522 209.933C305.579 211.026 302.098 210.54 299.554 208.691C297.02 206.833 295.319 203.76 295.458 200.627C292.489 201.243 289.45 201.859 286.447 201.477C283.435 201.104 280.857 199.75 279.495 197.041C281.065 195.149 282.663 193.274 284.277 191.425C289.121 185.895 294.155 180.556 299.372 175.4C302.74 172.075 306.499 168.681 311.169 167.978C317.706 166.997 324.042 171.902 326.62 177.986C329.199 184.072 328.774 190.99 327.671 197.51Z" fill="#29D3F3"/>
<path d="M324.937 215.358C324.919 215.94 324.911 216.521 324.919 217.103C322.966 218.544 321.238 219.438 318.973 218.561C316.716 217.676 314.416 215.523 313.947 213.145C312.784 213.874 311.187 213.848 310.05 213.075C308.912 212.302 308.27 211.287 308.522 209.933C305.579 211.027 302.098 210.54 299.555 208.691C297.02 206.834 295.319 203.76 295.457 200.627C292.489 201.243 289.451 201.86 286.447 201.477C283.435 201.104 280.857 199.749 279.494 197.042C281.066 195.149 282.663 193.274 284.277 191.425C288.062 194.784 293.774 195.896 298.522 194.099C298.009 197.215 299.381 200.401 301.613 202.632C303.843 204.863 307.185 205.931 310.293 205.41C310.449 206.686 311.169 207.606 312.263 208.275C313.365 208.934 314.763 209.065 315.97 208.613C316.021 211.261 317.819 213.821 320.223 214.942C321.681 215.618 323.374 215.74 324.937 215.358Z" fill="white"/>
<path d="M392.578 41.3494C392.352 41.3929 392.127 41.443 391.904 41.4976C391.581 42.6311 391.258 43.7654 390.934 44.8989C390.616 43.974 390.299 43.049 389.981 42.124C388.93 42.5552 387.932 43.1161 387.027 43.814C386.864 43.9401 386.71 44.0757 386.554 44.2098C386.771 45.4281 386.987 46.6464 387.203 47.8647C386.61 47.0112 386.017 46.157 385.424 45.3035C382.498 48.5074 381.139 53.1882 382.035 57.4982C386.371 57.6132 390.809 55.9476 394.287 53.3223C393.327 52.7666 392.367 52.2101 391.407 51.6537C392.973 51.6928 394.537 51.7311 396.102 51.7694C396.629 51.2587 397.121 50.7214 397.579 50.1583C400.712 46.3066 397.414 40.4267 392.578 41.3494Z" fill="#29D3F3"/>
<path d="M380.559 61.4531C382.433 55.5489 386.568 50.4332 391.898 47.4299" stroke="#2B2C34" stroke-width="1.33333" stroke-miterlimit="10" stroke-linecap="round" stroke-linejoin="round"/>
<path d="M385.315 87.8975C385.249 88.1179 385.189 88.3397 385.134 88.5631C385.989 89.3752 386.844 90.1874 387.698 90.9996C386.732 90.8522 385.765 90.7048 384.798 90.5574C384.692 91.6887 384.727 92.8326 384.926 93.958C384.962 94.1607 385.011 94.3604 385.057 94.5609C386.237 94.9338 387.417 95.3068 388.597 95.6797C387.565 95.8094 386.533 95.9399 385.502 96.0696C386.984 100.148 390.502 103.521 394.736 104.725C396.847 100.937 397.43 96.231 396.716 91.9327C395.778 92.526 394.841 93.1186 393.902 93.7119L396.182 89.6045C395.973 88.9013 395.725 88.2159 395.438 87.5489C393.478 82.9875 386.74 83.1843 385.315 87.8975Z" fill="#496AFE"/>
<path d="M397.556 107.866C393.193 103.469 390.578 97.4332 390.387 91.3189" stroke="#2B2C34" stroke-width="1.33333" stroke-miterlimit="10" stroke-linecap="round" stroke-linejoin="round"/>
<path d="M15.1713 306.96C15.2436 307.178 15.3224 307.394 15.405 307.608C16.5716 307.782 17.7375 307.956 18.9042 308.13C18.0279 308.565 17.1516 309 16.2753 309.434C16.8384 310.421 17.5238 311.338 18.3337 312.145C18.4797 312.29 18.6344 312.425 18.787 312.563C19.9669 312.191 21.1468 311.818 22.3267 311.445C21.5573 312.145 20.7871 312.844 20.0177 313.542C23.5729 316.029 28.3899 316.77 32.5479 315.324C32.1006 311.01 29.8749 306.824 26.8216 303.715C26.3948 304.739 25.9674 305.763 25.5399 306.787C25.3756 305.23 25.2113 303.673 25.0469 302.115C24.4728 301.66 23.8758 301.241 23.2582 300.86C19.0339 298.252 13.6303 302.284 15.1713 306.96Z" fill="#FFB13C"/>
<path d="M36.6604 316.276C30.5641 315.182 24.9564 311.743 21.2884 306.847" stroke="#2B2C34" stroke-width="1.33333" stroke-miterlimit="10" stroke-linecap="round" stroke-linejoin="round"/>
<path d="M396.513 144.984C396.513 144.374 396.018 143.879 395.407 143.879C394.797 143.879 394.302 144.374 394.302 144.984C394.302 145.595 394.797 146.09 395.407 146.09C396.018 146.09 396.513 145.595 396.513 144.984Z" stroke="#2B2C34" stroke-width="1.33333" stroke-miterlimit="10" stroke-linecap="round" stroke-linejoin="round"/>
<path d="M210.226 244.318C210.226 243.708 209.731 243.213 209.121 243.213C208.511 243.213 208.015 243.708 208.015 244.318C208.015 244.929 208.511 245.424 209.121 245.424C209.731 245.424 210.226 244.929 210.226 244.318Z" fill="#496AFE"/>
<path d="M173.149 233.805C173.149 233.194 172.654 232.699 172.043 232.699C171.433 232.699 170.938 233.194 170.938 233.805C170.938 234.415 171.433 234.91 172.043 234.91C172.654 234.91 173.149 234.415 173.149 233.805Z" fill="#496AFE"/>
<path d="M49.2506 311.355C49.2506 310.745 48.7561 310.25 48.1451 310.25C47.5349 310.25 47.0396 310.745 47.0396 311.355C47.0396 311.966 47.5349 312.461 48.1451 312.461C48.7561 312.461 49.2506 311.966 49.2506 311.355Z" fill="#2B2C34"/>
<path d="M6.21095 316.276C6.21095 315.666 5.7157 315.17 5.10547 315.17C4.49525 315.17 4 315.666 4 316.276C4 316.886 4.49525 317.382 5.10547 317.382C5.7157 317.382 6.21095 316.886 6.21095 316.276Z" fill="#496AFE"/>
<path d="M405.438 22.3567C405.438 21.7457 404.942 21.2512 404.332 21.2512C403.722 21.2512 403.227 21.7457 403.227 22.3567C403.227 22.9669 403.722 23.4622 404.332 23.4622C404.942 23.4622 405.438 22.9669 405.438 22.3567Z" fill="#29D3F3"/>
<path d="M386.366 159.099C386.366 158.489 385.872 157.994 385.261 157.994C384.651 157.994 384.155 158.489 384.155 159.099C384.155 159.71 384.651 160.205 385.261 160.205C385.872 160.205 386.366 159.71 386.366 159.099Z" fill="#496AFE"/>
<path d="M365.593 104.11L359.82 109.142L367.064 111.626L365.593 104.11Z" fill="#496AFE"/>
<path d="M181.976 249.032L174.546 247.173L176.652 254.537L181.976 249.032Z" fill="#29D3F3"/>
<path d="M62.7724 304.611L59.251 297.809L55.1217 304.261L62.7724 304.611Z" stroke="#2B2C34" stroke-width="1.33333" stroke-miterlimit="10" stroke-linecap="round" stroke-linejoin="round"/>
<path d="M407.58 2.94217L400.508 -3.58543e-06L401.496 7.59497L407.58 2.94217Z" stroke="#2B2C34" stroke-width="1.33333" stroke-miterlimit="10" stroke-linecap="round" stroke-linejoin="round"/>
<path d="M137.796 266.406L134.959 268.522L148.894 288.739C149.757 289.993 151.489 290.278 152.71 289.368C153.93 288.459 154.151 286.717 153.196 285.531L137.796 266.406Z" fill="#2B2C34"/>
<path d="M138.805 244.78C140.152 246.587 141.188 248.513 141.918 250.465C142.258 251.384 142.524 252.303 142.732 253.219C143.264 255.606 143.35 257.981 142.999 260.207C142.785 261.568 142.397 262.871 141.859 264.084C140.946 266.132 139.567 267.915 137.736 269.28C135.893 270.654 133.786 271.462 131.552 271.749C130.231 271.925 128.877 271.92 127.507 271.731C125.316 271.438 123.094 270.693 120.996 269.529C120.147 269.064 119.308 268.526 118.511 267.918C116.843 266.668 115.298 265.12 113.951 263.313C112.889 261.889 111.957 260.452 111.188 258.995C111.054 258.741 110.92 258.487 110.807 258.236C110.223 257.052 109.75 255.868 109.4 254.687C108.258 250.845 108.443 247.049 110.524 243.598C111.544 241.906 113.021 240.302 115.019 238.812C117.005 237.331 118.972 236.386 120.894 235.903C124.774 234.927 128.482 235.83 131.854 238.018C132.869 238.667 133.851 239.434 134.792 240.296C135.018 240.5 135.229 240.696 135.437 240.913C136.619 242.061 137.743 243.356 138.805 244.78Z" fill="#29D3F3"/>
<path d="M138.805 244.78C140.152 246.587 141.188 248.513 141.918 250.465C142.258 251.384 142.524 252.303 142.732 253.219C143.264 255.606 143.35 257.981 142.999 260.207L137.849 258.145L138.429 264.592L132.422 262.191L133.009 268.634L127.002 266.234L127.507 271.731C125.316 271.438 123.094 270.693 120.996 269.529C120.147 269.064 119.308 268.526 118.511 267.918C116.843 266.668 115.298 265.12 113.951 263.313C112.889 261.889 111.957 260.452 111.188 258.995C111.054 258.741 110.92 258.487 110.807 258.236C110.223 257.052 109.75 255.868 109.4 254.687L110.261 255.031L109.675 248.588L115.682 250.989L115.095 244.546L121.103 246.947L120.516 240.504L126.518 242.909L125.931 236.466L131.932 238.872L131.854 238.018C132.869 238.667 133.851 239.434 134.792 240.296C135.018 240.5 135.229 240.696 135.437 240.913C136.619 242.061 137.743 243.356 138.805 244.78Z" fill="#496AFE"/>
<path d="M138.803 244.779C139.5 245.714 140.118 246.684 140.644 247.674C141.14 248.588 141.561 249.525 141.914 250.466L118.51 267.917C117.709 267.312 116.931 266.64 116.195 265.904C115.397 265.118 114.644 264.249 113.947 263.313C113.534 262.759 113.145 262.204 112.779 261.648C112.189 260.771 111.658 259.883 111.191 258.995L135.441 240.912C136.159 241.613 136.862 242.372 137.535 243.188C137.969 243.693 138.39 244.225 138.803 244.779Z" fill="#FFD94B"/>
<path d="M117.1 239.517C121.477 236.59 127.797 236.992 131.767 240.451" stroke="white" stroke-width="1.33333" stroke-miterlimit="10" stroke-linecap="round" stroke-linejoin="round"/>
<path d="M115.226 293.828L113.516 296.927L134.558 309.583C135.862 310.367 137.557 309.912 138.293 308.579C139.028 307.246 138.509 305.569 137.15 304.884L115.226 293.828Z" fill="#2B2C34"/>
<path d="M107.211 273.717C109.185 274.806 110.925 276.133 112.395 277.609C113.084 278.305 113.706 279.031 114.274 279.779C115.745 281.733 116.804 283.861 117.404 286.034C117.771 287.361 117.957 288.708 117.966 290.035C117.982 292.277 117.462 294.471 116.358 296.471C115.248 298.483 113.662 300.089 111.747 301.274C110.616 301.98 109.381 302.534 108.055 302.928C105.939 303.567 103.607 303.806 101.217 303.612C100.251 303.539 99.2646 303.396 98.2881 303.172C96.2518 302.722 94.2059 301.951 92.2323 300.862C90.6772 300.004 89.235 299.08 87.9327 298.071C87.7065 297.895 87.4795 297.719 87.2731 297.537C86.2517 296.701 85.3319 295.818 84.5249 294.886C81.8983 291.86 80.4988 288.325 80.969 284.322C81.1989 282.36 81.8806 280.29 83.0856 278.108C84.2824 275.938 85.6835 274.265 87.2333 273.031C90.364 270.54 94.1145 269.83 98.0883 270.43C99.2808 270.601 100.492 270.895 101.705 271.291C101.995 271.383 102.269 271.475 102.548 271.586C104.098 272.144 105.656 272.858 107.211 273.717Z" fill="#FFD94B"/>
<path d="M107.211 273.717C109.185 274.806 110.925 276.133 112.395 277.609C113.084 278.305 113.706 279.031 114.274 279.779C115.745 281.733 116.804 283.861 117.404 286.034L111.862 286.283L115.054 291.914L108.591 292.21L111.787 297.835L105.324 298.13L108.055 302.928C105.939 303.567 103.607 303.806 101.217 303.612C100.251 303.539 99.2646 303.396 98.2881 303.172C96.2518 302.722 94.2059 301.951 92.2323 300.862C90.6773 300.004 89.235 299.08 87.9327 298.071C87.7065 297.895 87.4795 297.719 87.2731 297.537C86.2517 296.701 85.3319 295.818 84.5249 294.886L85.4513 294.844L82.2565 289.218L88.7184 288.924L85.5235 283.298L91.9861 283.003L88.7906 277.377L95.2495 277.089L92.0539 271.464L98.5129 271.175L98.0884 270.43C99.2808 270.601 100.492 270.895 101.705 271.291C101.995 271.383 102.269 271.475 102.548 271.586C104.098 272.144 105.656 272.858 107.211 273.717Z" fill="#FF7AD7"/>
<path d="M107.21 273.717C108.231 274.28 109.194 274.908 110.082 275.592C110.911 276.221 111.683 276.9 112.392 277.611L98.2862 303.172C97.3067 302.952 96.3214 302.661 95.3471 302.294C94.2954 301.907 93.2504 301.428 92.2289 300.864C91.6246 300.53 91.0401 300.186 90.4771 299.83C89.578 299.274 88.7275 298.686 87.936 298.07L102.551 271.584C103.494 271.926 104.449 272.327 105.398 272.791C106.002 273.072 106.605 273.383 107.21 273.717Z" fill="#FDB044"/>
<path d="M86.188 277.279C89.1787 273.454 94.5093 271.628 99.2178 272.817" stroke="white" stroke-width="1.33333" stroke-miterlimit="10" stroke-linecap="round" stroke-linejoin="round"/>
</g>
<defs>
<filter id="filter0_d_103_778" x="0" y="0" width="422" height="338" filterUnits="userSpaceOnUse" color-interpolation-filters="sRGB">
<feFlood flood-opacity="0" result="BackgroundImageFix"/>
<feColorMatrix in="SourceAlpha" type="matrix" values="0 0 0 0 0 0 0 0 0 0 0 0 0 0 0 0 0 0 127 0" result="hardAlpha"/>
<feOffset dy="4"/>
<feGaussianBlur stdDeviation="2"/>
<feComposite in2="hardAlpha" operator="out"/>
<feColorMatrix type="matrix" values="0 0 0 0 0 0 0 0 0 0 0 0 0 0 0 0 0 0 0.25 0"/>
<feBlend mode="normal" in2="BackgroundImageFix" result="effect1_dropShadow_103_778"/>
<feBlend mode="normal" in="SourceGraphic" in2="effect1_dropShadow_103_778" result="shape"/>
</filter>
<clipPath id="clip0_103_778">
<rect width="414" height="330" fill="white" transform="translate(4)"/>
</clipPath>
</defs>
</svg>
